<?xml version="1.0" encoding="UTF-8"?>
<svg width="205px" height="194px" viewBox="0 0 205 194" version="1.1" xmlns="http://www.w3.org/2000/svg" xmlns:xlink="http://www.w3.org/1999/xlink">
    <!-- Generator: Sketch 49.1 (51147) - http://www.bohemiancoding.com/sketch -->
    <title>droidjam</title>
    <desc>Created with Sketch.</desc>
    <defs></defs>
    <g id="Page-1" stroke="none" stroke-width="1" fill="none" fill-rule="evenodd">
        <g id="droidjam">
            <path d="M36.11,76.12 C33.1801294,73.1901294 33.1801294,68.4398706 36.11,65.51 C39.0398706,62.5801294 43.7901294,62.5801294 46.72,65.51 L59.48,78.27 C64.6824666,75.3820551 70.167948,73.0364002 75.85,71.27 C76.06,70.98 76.27,70.71 76.49,70.45 C76.49,70.45 84.56,60.45 90.7,56.03 C90.7,56.03 91.57,61.22 92.93,61.03 C92.93,61.03 93.93,55.1 115.5,47.76 C115.5,47.76 114.75,60.76 118.98,66.89 C118.98,66.89 120.21,66.46 121.14,62.97 C121.14,62.97 123.34,64.42 126.28,70.44 C131.845367,71.9678174 137.24521,74.0446801 142.4,76.64 L154.61,64.43 C156.505294,62.534706 159.267745,61.7945094 161.856765,62.4882351 C164.445785,63.1819609 166.468039,65.2042155 167.161765,67.7932352 C167.855491,70.3822549 167.115294,73.1447061 165.22,75.04 L155.49,84.77 C162.5447,90.0737228 168.688464,96.4910689 173.68,103.77 C175.467074,106.379451 176.425483,109.467272 176.43,112.63 L176.43,144 C176.434697,144.264272 176.454731,144.528049 176.49,144.79 L28.41,144.79 C28.441903,144.527853 28.4585976,144.264078 28.46,144 L28.46,112.65 C28.4727583,109.462386 29.4487756,106.353074 31.26,103.73 C35.6206148,97.3883972 40.8634036,91.7011331 46.83,86.84 L36.11,76.12 Z M189.57,90.31 C197.854271,90.31 204.57,97.0257288 204.57,105.31 L204.57,132.22 C204.564561,140.510131 197.860067,147.236973 189.57,147.27 L183.22,147.27 C181.405262,147.264509 179.935491,145.794738 179.93,143.98 L179.93,93.59 C179.935511,91.7768896 181.406881,90.3099916 183.22,90.31 L189.57,90.31 Z M15.33,90.31 L21.68,90.31 C22.5568199,90.2993063 23.4014137,90.6401501 24.0252115,91.2564323 C24.6490093,91.8727145 25.0000652,92.7131149 25,93.59 L25,144 C25.0000084,145.813119 23.5331104,147.284489 21.72,147.29 L15.33,147.29 C7.03993319,147.256973 0.335438949,140.530131 0.33,132.24 L0.33,105.35 C0.319372833,101.364827 1.89503272,97.5392338 4.70923106,94.717531 C7.5234294,91.8958281 11.3448125,90.3099858 15.33,90.31 Z M176.33,62.68 L173.76,59 L172.47,57.15 L171.05,55.41 C170.05,54.26 169.17,53.08 168.2,51.94 L165.11,48.69 C164.58,48.15 164.11,47.58 163.54,47.08 L161.88,45.58 C160.76,44.58 159.69,43.58 158.53,42.58 C156.15,40.77 153.89,38.8 151.34,37.23 C146.396524,33.8697522 141.110224,31.0439111 135.57,28.8 L131.38,27.23 L130.38,26.84 L129.3,26.53 L127.15,25.92 L125,25.31 L123.87,25 L122.78,24.78 L118.39,23.9 L117.29,23.67 L116.18,23.54 L114,23.27 L111.74,23 C111.001777,22.8866626 110.256757,22.8231855 109.51,22.81 C106.51,22.71 103.59,22.52 100.51,22.58 C98.97,22.58 97.51,22.58 96,22.69 C94.49,22.8 93,22.78 91.53,22.87 L87.08,23.4 L84.86,23.67 L82.67,24.11 L78.28,25 L74,26.24 L71.85,26.85 L69.75,27.64 L65.56,29.21 C54.5216456,33.9169029 44.5562331,40.8202222 36.27,49.5 C32.1133339,53.814463 28.4260393,58.5576646 25.27,63.65 L23,67.53 C22.6310304,68.1782452 22.2972144,68.8458772 22,69.53 L21,71.53 C19.6840071,74.2250922 18.5058212,76.9853182 17.47,79.8 C16.6484536,81.9025685 16.0452817,84.0840404 15.67,86.31 L15.39,86.31 C11.939587,86.3110589 8.56218068,87.3038011 5.66,89.17 C5.59,88.55 5.52,87.92 5.48,87.28 C5.34492671,85.3824006 5.34492671,83.4775994 5.48,81.58 C5.54,80.58 5.64,79.64 5.76,78.66 C5.88,77.68 6.07,76.66 6.22,75.85 C7.45402409,68.9282128 9.51547267,62.1798225 12.36,55.75 C12.7,54.92 13.05,54.1 13.46,53.31 C13.87,52.52 14.27,51.73 14.69,50.94 L15.95,48.57 L16.59,47.39 L17.3,46.25 L20.19,41.69 C20.662962,40.9212304 21.1839988,40.1830949 21.75,39.48 L23.41,37.34 C25.6375012,34.4671476 28.0106065,31.7102067 30.52,29.08 C31.1540397,28.4131851 31.8215678,27.7790334 32.52,27.18 L34.52,25.33 L36.52,23.49 C37.2,22.87 37.95,22.34 38.66,21.76 L43,18.37 C44.5,17.28 46.09,16.37 47.64,15.37 L50,13.86 C50.8,13.4 51.62,12.98 52.44,12.54 L57.37,9.93 C59.06,9.16 60.78,8.42 62.51,7.73 L65.1,6.67 L67.76,5.8 L73.11,4.09 L78.58,2.79 C79.49,2.57 80.41,2.39 81.33,2.2 L84.11,1.81 L89.69,1.08 C91.56,0.94 93.43,0.87 95.3,0.77 L98.11,0.64 C98.61,0.64 98.98,0.64 99.36,0.64 C99.74,0.64 100.12,0.64 100.5,0.64 C103.25,0.64 107.42,0.86 111.06,1.05 C111.997664,1.09326156 112.932337,1.18672885 113.86,1.33 L116.65,1.69 L119.43,2.06 C119.9,2.13 120.36,2.18 120.82,2.27 L122.19,2.58 L127.66,3.87 L129.03,4.2 L130.37,4.62 L133.04,5.48 L135.7,6.34 L137.03,6.78 L138.33,7.3 C140.07,7.99 141.76,8.76 143.47,9.5 C150.193578,12.5718559 156.528045,16.4322889 162.34,21 C165.23135,23.2443338 167.99249,25.6515673 170.61,28.21 C171.9,29.5 173.09,30.89 174.32,32.21 L176.14,34.21 C176.74,34.88 177.27,35.63 177.84,36.33 C178.96,37.75 180.06,39.18 181.12,40.63 C182.18,42.08 183.07,43.63 184.03,45.18 L185.45,47.45 L186.72,49.81 C187.57,51.39 188.35,52.99 189.13,54.57 L191.13,59.49 C191.46,60.31 191.82,61.11 192.13,61.94 C192.44,62.77 192.65,63.63 192.91,64.47 C193.41,66.16 193.91,67.82 194.38,69.47 C194.85,71.12 195.15,72.88 195.47,74.58 L195.71,75.85 C195.79,76.28 195.87,76.68 195.95,77.19 C196.12,78.19 196.24,79.19 196.33,80.1 C196.525734,81.9999928 196.582551,83.9117365 196.5,85.82 C196.5,86.56 196.41,87.28 196.34,88 C193.912536,86.831969 191.253857,86.2236851 188.56,86.22 L186.56,86.22 C186.118697,83.6228937 185.377055,81.0858746 184.35,78.66 L182.68,74.48 C182.07,73.11 181.38,71.78 180.73,70.48 L179.73,68.48 C179.39,67.81 178.98,67.18 178.61,66.48 L176.33,62.68 Z" id="Shape" fill="#FFFFFF" fill-rule="nonzero"></path>
            <path d="M131.13,98.62 C126.69,98.62 115.23,99.96 112.29,101.62 C108.38,103.86 106.71,103.62 106.71,103.62 L98.19,103.62 C98.19,103.62 96.52,103.81 92.61,101.62 C89.61,99.93 78.2,98.62 73.76,98.62 C69.32,98.62 51.37,99.49 49.62,100.14 L49.93,106.03 C49.93,106.03 52.74,106.78 53.29,110.89 C53.84,115 56.05,127.05 61.29,130.56 C66.03,133.73 74.97,136.01 85.73,131.42 C87.6133912,130.45664 89.3506804,129.23111 90.89,127.78 C94.5217157,123.954732 97.0570402,119.222587 98.23,114.08 C98.23,114.08 98.68,109.33 102.44,109.32 C106.2,109.31 106.64,114.08 106.64,114.08 C107.81296,119.222587 110.348284,123.954732 113.98,127.78 C115.52273,129.231467 117.263369,130.456985 119.15,131.42 C129.9,136.01 138.84,133.73 143.58,130.56 C148.84,127.05 151.06,115 151.58,110.89 C152.1,106.78 155,106 155,106 L155.3,100.11 C153.52,99.49 135.58,98.62 131.13,98.62 Z M58.89,105.44 C60.95,102.77 64.89,101.87 68.8,101.6 L58,120.52 C56.43,115.13 56.46,108.61 58.89,105.44 Z M71.14,101.51 C72.52,101.51 73.86,101.51 75.14,101.51 L75.85,101.51 L61.29,127 C60.2696123,125.810112 59.455078,124.458188 58.88,123 L71.14,101.51 Z M94,114.33 C93.21,121.55 90.66,124.39 88.16,126.74 C82.92,131.66 72.25,134.44 62.69,128.26 C62.4431789,128.101892 62.2091289,127.924683 61.99,127.73 L76.9,101.61 C84.04,101.87 88.19,102.52 90.62,104.14 C92.0966214,105.061715 93.1958716,106.480103 93.72,108.14 C94.0607989,110.184684 94.1548054,112.262898 94,114.33 Z M110.81,114.33 C110.659333,112.259511 110.753315,110.178479 111.09,108.13 C111.614128,106.470103 112.713379,105.051715 114.19,104.13 C116.08,102.86 119.03,102.19 123.62,101.84 L112.54,121.25 C111.618531,119.045813 111.048276,116.710805 110.85,114.33 L110.81,114.33 Z M113.66,123.33 L126,101.7 C127.16,101.63 128.41,101.59 129.75,101.55 L130.75,101.55 L116.45,126.61 C115.405659,125.622996 114.4825,124.515205 113.7,123.31 L113.66,123.33 Z M142.13,128.28 C134.494824,133.368416 124.45217,132.964772 117.25,127.28 L132,101.51 C137.15,101.45 143.23,101.84 146,105.44 C150,110.62 147.52,124.79 142.17,128.26 L142.13,128.28 Z" id="Shape" fill="#000000"></path>
            <path d="M0.48,184.13 L0.48,154.74 L17.18,154.74 C20.3666667,154.74 21.96,155.98 21.96,158.46 L21.96,180.46 C21.96,182.88 20.3666667,184.09 17.18,184.09 L0.48,184.13 Z M12.4,162.19 C12.4,162.13 12.4,162.1 12.3,162.1 L10.05,162.1 L10.05,176.82 L12.3,176.82 C12.3273915,176.823258 12.3547643,176.813775 12.3742696,176.79427 C12.3937748,176.774764 12.403258,176.747391 12.4,176.72 L12.4,162.19 Z" id="Shape" fill="#FFFFFF" fill-rule="nonzero"></path>
            <path d="M43.35,193.28 C40.1633333,193.28 38.57,192.07 38.57,189.65 L38.57,172.45 C38.57,172.39 38.57,172.35 38.48,172.35 L36.22,172.35 L36.22,184.13 L26.66,184.13 L26.66,154.74 L43.35,154.74 C46.51,154.74 48.09,155.98 48.09,158.46 L48.09,167 C48.09,168.41 47.31,169.21 45.74,169.39 C47.34,169.61 48.14,170.39 48.14,171.83 L48.14,185.83 C48.1366534,185.854745 48.145053,185.879634 48.1627097,185.89729 C48.1803664,185.914947 48.2052549,185.923347 48.23,185.92 L71.87,185.92 L71.87,193.23 L43.35,193.28 Z M38.57,162.19 C38.5733466,162.165255 38.564947,162.140366 38.5472903,162.12271 C38.5296336,162.105053 38.5047451,162.096653 38.48,162.1 L36.22,162.1 L36.22,166.51 L38.48,166.51 C38.5047451,166.513347 38.5296336,166.504947 38.5472903,166.48729 C38.564947,166.469634 38.5733466,166.444745 38.57,166.42 L38.57,162.19 Z M55.17,184.13 C51.99,184.13 50.39,182.92 50.39,180.5 L50.39,158.5 C50.39,156.02 51.99,154.78 55.17,154.78 L67.09,154.78 C70.2766667,154.78 71.87,156.02 71.87,158.5 L71.87,180.5 C71.87,182.92 70.2766667,184.13 67.09,184.13 L55.17,184.13 Z M62.3,162.19 C62.3033466,162.165255 62.294947,162.140366 62.2772903,162.12271 C62.2596336,162.105053 62.2347451,162.096653 62.21,162.1 L60.05,162.1 C60.0252549,162.096653 60.0003664,162.105053 59.9827097,162.12271 C59.965053,162.140366 59.9566534,162.165255 59.96,162.19 L59.96,176.72 C59.96,176.79 59.96,176.82 60.05,176.82 L62.21,176.82 C62.27,176.82 62.3,176.82 62.3,176.72 L62.3,162.19 Z" id="Shape" fill="#FFFFFF" fill-rule="nonzero"></path>
            <polygon id="Shape" fill="#FFFFFF" fill-rule="nonzero" points="76.56 184.13 76.56 154.74 86.13 154.74 86.13 184.13"></polygon>
            <path d="M90.92,184.13 L90.92,154.74 L107.61,154.74 C110.796667,154.74 112.393333,155.98 112.4,158.46 L112.4,180.46 C112.4,182.88 110.803333,184.09 107.61,184.09 L90.92,184.13 Z M102.83,162.19 C102.833347,162.165255 102.824947,162.140366 102.80729,162.12271 C102.789634,162.105053 102.764745,162.096653 102.74,162.1 L100.48,162.1 L100.48,176.82 L102.74,176.82 C102.8,176.82 102.83,176.82 102.83,176.72 L102.83,162.19 Z" id="Shape" fill="#FFFFFF" fill-rule="nonzero"></path>
            <path d="M121.51,184.13 C118.323333,184.13 116.726667,182.92 116.72,180.5 L116.72,169.41 L126.29,169.41 L126.29,176.72 C126.29,176.79 126.29,176.82 126.38,176.82 L128.54,176.82 C128.61,176.82 128.64,176.82 128.64,176.72 L128.64,154.72 L138.2,154.72 L138.2,180.5 C138.2,182.92 136.606667,184.13 133.42,184.13 L121.51,184.13 Z" id="Shape" fill="#FFFFFF" fill-rule="nonzero"></path>
            <path d="M159.59,193.28 C156.403333,193.28 154.81,192.07 154.81,189.65 L154.81,173.14 L152.46,173.14 L152.46,184.14 L142.9,184.14 L142.9,158.46 C142.9,155.98 144.493333,154.74 147.68,154.74 L159.59,154.74 C162.776667,154.74 164.373333,155.98 164.38,158.46 L164.38,185.88 C164.376653,185.904745 164.385053,185.929634 164.40271,185.94729 C164.420366,185.964947 164.445255,185.973347 164.47,185.97 L200.12,185.97 L200.12,193.28 L159.59,193.28 Z M154.81,162.19 C154.813347,162.165255 154.804947,162.140366 154.78729,162.12271 C154.769634,162.105053 154.744745,162.096653 154.72,162.1 L152.56,162.1 C152.49,162.1 152.46,162.1 152.46,162.19 L152.46,165.78 L154.81,165.78 L154.81,162.19 Z M190.64,184.13 L190.64,162.19 C190.643347,162.165255 190.634947,162.140366 190.61729,162.12271 C190.599634,162.105053 190.574745,162.096653 190.55,162.1 L188.3,162.1 C188.275255,162.096653 188.250366,162.105053 188.23271,162.12271 C188.215053,162.140366 188.206653,162.165255 188.21,162.19 L188.21,184.13 L178.64,184.13 L178.64,162.19 C178.643347,162.165255 178.634947,162.140366 178.61729,162.12271 C178.599634,162.105053 178.574745,162.096653 178.55,162.1 L176.38,162.1 C176.355255,162.096653 176.330366,162.105053 176.31271,162.12271 C176.295053,162.140366 176.286653,162.165255 176.29,162.19 L176.29,184.13 L166.72,184.13 L166.72,154.74 L176.29,154.74 L176.29,156.62 C176.989227,155.941039 177.85492,155.458182 178.8,155.22 C180.00417,154.884557 181.250098,154.722923 182.5,154.74 C183.623349,154.68646 184.745146,154.873995 185.79,155.29 C186.591345,155.657352 187.281324,156.230035 187.79,156.95 C188.452523,156.084839 189.379545,155.459801 190.43,155.17 C191.685566,154.858674 192.976672,154.714097 194.27,154.74 C195.053373,154.734113 195.833892,154.835043 196.59,155.04 C197.258587,155.210823 197.891678,155.498592 198.46,155.89 C198.961502,156.233854 199.384177,156.68039 199.7,157.2 C200.006705,157.687875 200.166403,158.253763 200.16,158.83 L200.160185,184.13 L190.64,184.13 Z" id="Shape" fill="#FFFFFF" fill-rule="nonzero"></path>
        </g>
    </g>
</svg>