<svg id="Layer_1" data-name="Layer 1" xmlns="http://www.w3.org/2000/svg" viewBox="0 0 254.9 237.35"><defs><style>.cls-1{fill:#fff;}.cls-2{fill-rule:evenodd;}</style></defs><title>DroidJam2</title><path class="cls-1" d="M201.43,164V132.74a15.71,15.71,0,0,0-2.76-8.87,81.38,81.38,0,0,0-18.18-19l9.73-9.73a7.5,7.5,0,1,0-10.61-10.61L167.4,96.72q-3.17-1.59-6.48-2.93l6.47-2.28a.23.23,0,0,0,0-.42C158.12,86.6,151,87.34,151,87.34c3.35-3.31,2.49-6.39,2.2-7.17a.23.23,0,0,0-.28-.13l-7.38,2.4c-3.49-9.11-7.76-14-8.88-15.21a.22.22,0,0,0-.37.12c-1.77,8.27-4.5,11.1-4.5,11.1a42.47,42.47,0,0,0-16.21-19,.21.21,0,0,0-.32.21c.87,10.14-4.44,20.14-4.44,20.14l-6.56-10.06a.23.23,0,0,0-.34,0c-9.66,8.6-9.14,21.46-9.14,21.46-1.77-4.45-10-5.68-10-5.68l4.89,10.17q-2.61,1.22-5.11,2.6L71.72,85.51A7.5,7.5,0,1,0,61.11,96.12l10.72,10.72a80.94,80.94,0,0,0-15.57,16.89,15.81,15.81,0,0,0-2.8,8.92V164a7,7,0,0,1-.05.79H201.49A5.25,5.25,0,0,1,201.43,164ZM180,126s-2.82.75-3.36,4.86-2.76,16.16-8,19.67c-4.74,3.17-13.68,5.45-24.43.86a22.42,22.42,0,0,1-5.17-3.64,29.39,29.39,0,0,1-7.34-13.7s-.45-4.75-4.2-4.76-4.21,4.76-4.21,4.76a29.39,29.39,0,0,1-7.34,13.7,22.38,22.38,0,0,1-5.16,3.64C100,156,91,153.73,86.3,150.56c-5.25-3.51-7.47-15.56-8-19.67S74.93,126,74.93,126l-.31-5.89c1.75-.65,19.7-1.52,24.14-1.52s15.9,1.34,18.85,3c3.91,2.24,5.58,2,5.58,2h8.52s1.67.19,5.58-2a22.71,22.71,0,0,1,6-1.68,86.3,86.3,0,0,1,12.85-1.35c1.17,0,3.26.06,5.75.16,7,.28,17.1.88,18.39,1.36Z"/><path d="M161.88,118.78c-.41,1.15-.68,1.85-.68,1.85L143.28,120a86.3,86.3,0,0,1,12.85-1.35C157.3,118.62,159.39,118.68,161.88,118.78Z"/><path class="cls-1" d="M180.27,120.14,180,126s-2.82.75-3.36,4.86-2.76,16.16-8,19.67c-4.74,3.17-13.68,5.45-24.43.86a22.42,22.42,0,0,1-5.17-3.64,29.39,29.39,0,0,1-7.34-13.7s-.45-4.75-4.2-4.76-4.21,4.76-4.21,4.76a29.39,29.39,0,0,1-7.34,13.7,22.38,22.38,0,0,1-5.16,3.64C100,156,91,153.73,86.3,150.56c-5.25-3.51-7.47-15.56-8-19.67S74.93,126,74.93,126l-.31-5.89c1.75-.65,19.7-1.52,24.14-1.52s15.9,1.34,18.85,3c3.91,2.24,5.58,2,5.58,2h8.52s1.67.19,5.58-2a22.71,22.71,0,0,1,6-1.68,86.3,86.3,0,0,1,12.85-1.35c1.17,0,3.26.06,5.75.16C168.87,119.06,179,119.66,180.27,120.14Z"/><path class="cls-1" d="M46.68,110.31H40.33a15,15,0,0,0-15,15v26.91a15.06,15.06,0,0,0,15,15.05h6.35A3.29,3.29,0,0,0,50,164V113.59A3.28,3.28,0,0,0,46.68,110.31Z"/><path class="cls-1" d="M214.57,110.31h-6.35a3.29,3.29,0,0,0-3.29,3.28V164a3.3,3.3,0,0,0,3.29,3.29h6.35a15.06,15.06,0,0,0,15-15.05V125.35A15,15,0,0,0,214.57,110.31Z"/><path class="cls-1" d="M207.66,94.57l1.67,4.18a34,34,0,0,1,2.21,7.56h2a18,18,0,0,1,7.78,1.78c.07-.72.12-1.44.16-2.18a39.26,39.26,0,0,0-.17-5.72c-.09-1-.21-1.93-.38-2.91-.08-.51-.16-.91-.24-1.34l-.24-1.27c-.32-1.7-.72-3.39-1.09-5.11s-1-3.34-1.47-5c-.26-.84-.5-1.7-.78-2.53s-.65-1.63-1-2.45l-2-4.92c-.78-1.58-1.56-3.18-2.41-4.76l-1.27-2.36L209,65.24c-1-1.51-1.91-3-2.91-4.55s-2.16-2.88-3.28-4.3c-.57-.7-1.1-1.45-1.7-2.12l-1.82-2c-1.23-1.33-2.42-2.72-3.71-4A96.37,96.37,0,0,0,187.34,41a93.25,93.25,0,0,0-18.88-11.57c-1.71-.74-3.4-1.51-5.14-2.2l-1.3-.52-1.33-.44L158,25.44l-2.67-.86L154,24.16l-1.37-.33-5.47-1.29-1.37-.31c-.46-.09-.92-.14-1.39-.21l-2.78-.37-2.79-.36a26.28,26.28,0,0,0-2.8-.28c-3.64-.19-7.81-.43-10.56-.41-.38,0-.76,0-1.14,0s-.75,0-1.25,0l-2.81.13c-1.87.1-3.74.17-5.61.31l-5.58.73-2.78.39c-.92.19-1.84.37-2.75.59l-5.47,1.3L92.75,25.8l-2.66.87L87.5,27.73c-1.73.69-3.45,1.43-5.14,2.2l-4.93,2.61c-.82.44-1.64.86-2.44,1.32l-2.36,1.48c-1.55,1-3.14,1.94-4.64,3l-4.36,3.39c-.71.58-1.46,1.11-2.14,1.73l-2,1.84-2,1.85a27.15,27.15,0,0,0-2,1.9,106.52,106.52,0,0,0-7.11,8.26l-1.66,2.14a21.44,21.44,0,0,0-1.56,2.21l-2.89,4.56-.71,1.14-.64,1.18-1.26,2.37c-.42.79-.84,1.57-1.23,2.37s-.76,1.61-1.1,2.44a87.75,87.75,0,0,0-6.14,20.1c-.15.79-.33,1.86-.46,2.81s-.22,2-.28,2.92a40.14,40.14,0,0,0,0,5.7c0,.64.11,1.27.18,1.89a18,18,0,0,1,9.73-2.86h.28a32.93,32.93,0,0,1,1.8-6.51,88.53,88.53,0,0,1,3.53-8.27l1-2a20.79,20.79,0,0,1,1-2l2.28-3.88a84.72,84.72,0,0,1,11-14.15A88.47,88.47,0,0,1,90.52,49.21l4.19-1.57,2.1-.79L99,46.24l4.3-1.23,4.39-.89,2.19-.44,2.22-.27,4.45-.53c1.49-.09,3-.12,4.47-.18s3-.13,4.51-.11c3.1-.06,6,.13,9,.23a16.63,16.63,0,0,1,2.23.19l2.22.26,2.22.27,1.11.13,1.1.23,4.39.88,1.09.22,1.08.31,2.15.62,2.15.61,1.08.31,1,.39,4.19,1.57a84.44,84.44,0,0,1,15.77,8.43c2.55,1.57,4.81,3.54,7.19,5.35,1.16.94,2.23,2,3.35,3l1.66,1.5c.56.5,1,1.07,1.57,1.61l3.09,3.25c1,1.14,1.9,2.32,2.85,3.47l1.42,1.74L198.76,79l2.56,3.69,2.28,3.87c.37.65.78,1.28,1.12,2l1,2C206.36,91.87,207.05,93.2,207.66,94.57Z"/><path class="cls-2" d="M161.88,118.78c-2.49-.1-4.58-.16-5.75-.16A86.3,86.3,0,0,0,143.28,120a22.71,22.71,0,0,0-6,1.68c-3.91,2.24-5.58,2-5.58,2h-8.52s-1.67.19-5.58-2c-3-1.69-14.41-3-18.85-3s-22.39.87-24.14,1.52l.31,5.89s2.81.75,3.36,4.86,2.76,16.16,8,19.67c4.74,3.17,13.68,5.45,24.44.86a22.38,22.38,0,0,0,5.16-3.64,29.39,29.39,0,0,0,7.34-13.7s.45-4.75,4.21-4.76,4.2,4.76,4.2,4.76a29.39,29.39,0,0,0,7.34,13.7,22.42,22.42,0,0,0,5.17,3.64c10.75,4.59,19.69,2.31,24.43-.86,5.26-3.51,7.48-15.56,8-19.67S180,126,180,126l.3-5.89C179,119.66,168.87,119.06,161.88,118.78Zm-78,6.66c2.06-2.67,6-3.57,9.91-3.84L83,140.52C81.43,135.13,81.46,128.61,83.89,125.44ZM86.29,147a14.08,14.08,0,0,1-2.41-4l12.26-21.49c1.38,0,2.72,0,4,0l.71,0ZM119,134.33c-.79,7.22-3.34,10.06-5.84,12.41-5.24,4.92-15.91,7.7-25.47,1.52a5.61,5.61,0,0,1-.7-.53l14.91-26.12c7.14.26,11.29.91,13.72,2.53a7.31,7.31,0,0,1,3.1,4A25.89,25.89,0,0,1,119,134.33Zm16.81,0a26.41,26.41,0,0,1,.28-6.2,7.31,7.31,0,0,1,3.1-4c1.89-1.27,4.84-1.94,9.43-2.29l-11.08,19.41A22.86,22.86,0,0,1,135.85,134.33Zm2.85,9L151,121.7c1.16-.07,2.41-.11,3.75-.15l1,0-14.3,25.06A18.11,18.11,0,0,1,138.7,143.31Zm28.47,4.95a21.19,21.19,0,0,1-24.88-1L157,121.51c5.15-.06,11.23.33,14,3.93C175,130.62,172.52,144.79,167.17,148.26Z"/><path class="cls-1" d="M25.27,204.25V174.06a.5.5,0,0,1,.5-.49H43c3.38,0,5.07,1.31,5.07,4v23.37q0,3.86-5.07,3.85H25.77A.5.5,0,0,1,25.27,204.25ZM37.91,182a.59.59,0,0,0-.59-.6h-1.9a.5.5,0,0,0-.5.5v14.62a.5.5,0,0,0,.5.5h1.9a.59.59,0,0,0,.59-.6Z"/><path class="cls-1" d="M74.56,206.7a.6.6,0,0,1-.59-.6V191.72a2.29,2.29,0,0,0-1.13-2.15.51.51,0,0,1,0-.87,2.25,2.25,0,0,0,1.07-2.11v-9.07c0-2.64-1.67-4-5-4H51.68a.5.5,0,0,0-.5.49v30.19a.5.5,0,0,0,.5.49h8.66a.49.49,0,0,0,.49-.49l0-11.5a.51.51,0,0,1,.5-.5h1.88a.6.6,0,0,1,.59.6V210.6q0,3.85,5.08,3.85H99.44a.49.49,0,0,0,.49-.49v-6.77a.49.49,0,0,0-.49-.49ZM63.85,185.46a.6.6,0,0,1-.6.6h-1.9a.51.51,0,0,1-.5-.5v-3.69a.51.51,0,0,1,.5-.5h2a.51.51,0,0,1,.5.5Z"/><path class="cls-1" d="M94.86,173.57H82.22c-3.38,0-5.07,1.31-5.07,4v23.37q0,3.86,5.07,3.85H94.86q5.07,0,5.07-3.85V177.52C99.93,174.88,98.24,173.57,94.86,173.57ZM90,181.85v14.61a.49.49,0,0,1-.49.5h-2a.5.5,0,0,1-.5-.5V181.85a.5.5,0,0,1,.5-.5h2A.49.49,0,0,1,90,181.85Z"/><path class="cls-1" d="M103.11,204.25V174.06a.5.5,0,0,1,.5-.49h9.16a.49.49,0,0,1,.49.49v30.19a.49.49,0,0,1-.49.49h-9.16A.5.5,0,0,1,103.11,204.25Z"/><path class="cls-1" d="M134.09,173.57H116.88a.49.49,0,0,0-.5.49v30.19a.49.49,0,0,0,.5.49h17.21q5.07,0,5.07-3.85V177.52C139.16,174.88,137.47,173.57,134.09,173.57ZM129,196.39a.6.6,0,0,1-.6.6h-1.9a.5.5,0,0,1-.5-.5V181.87a.5.5,0,0,1,.5-.5h1.9a.6.6,0,0,1,.6.6Z"/><path class="cls-1" d="M147.42,204.74q-5.07,0-5.07-3.85V189.63a.49.49,0,0,1,.49-.5h8.66a.5.5,0,0,1,.5.5v6.86a.51.51,0,0,0,.5.5h1.89a.59.59,0,0,0,.59-.6V174.06a.5.5,0,0,1,.5-.49h9.15a.49.49,0,0,1,.5.49v26.83q0,3.86-5.07,3.85Z"/><path class="cls-1" d="M191.69,206.7a.6.6,0,0,1-.59-.6V177.52c0-2.64-1.69-4-5.08-4H173.39c-3.39,0-5.08,1.31-5.08,4v26.73a.5.5,0,0,0,.5.49h8.66a.5.5,0,0,0,.5-.49V193.58a.5.5,0,0,1,.49-.5h2a.5.5,0,0,1,.5.5v17q0,3.85,5.07,3.85H229.2a.49.49,0,0,0,.5-.49v-6.77a.49.49,0,0,0-.5-.49Zm-11.24-21.42h-2a.5.5,0,0,1-.5-.5v-2.91a.5.5,0,0,1,.5-.5h2a.5.5,0,0,1,.5.5v2.91A.5.5,0,0,1,180.45,185.28Z"/><path class="cls-1" d="M219.9,204.25V181.87a.5.5,0,0,0-.5-.5h-2.09a.5.5,0,0,0-.5.5v22.38a.49.49,0,0,1-.5.49h-8.65a.49.49,0,0,1-.49-.49V181.87a.5.5,0,0,0-.5-.5h-2a.5.5,0,0,0-.5.5v22.38a.49.49,0,0,1-.5.49h-8.91a.49.49,0,0,1-.49-.49V174.06a.49.49,0,0,1,.49-.49h9.16a.5.5,0,0,1,.5.49v1.51a5.81,5.81,0,0,1,2.66-1.49,13.85,13.85,0,0,1,3.92-.51,8.4,8.4,0,0,1,3.49.58,5.15,5.15,0,0,1,1.73,1.31.48.48,0,0,0,.72,0,5.23,5.23,0,0,1,2.43-1.45,15.5,15.5,0,0,1,4.08-.46,9.32,9.32,0,0,1,2.46.31,6.69,6.69,0,0,1,2,.91,4.51,4.51,0,0,1,1.45,1.63,3.44,3.44,0,0,1,.35,1.58v26.25a.49.49,0,0,1-.5.49h-8.8A.49.49,0,0,1,219.9,204.25Z"/></svg>