<?xml version="1.0" encoding="UTF-8"?>
<svg width="107px" height="16px" viewBox="0 0 107 16" version="1.1" xmlns="http://www.w3.org/2000/svg" xmlns:xlink="http://www.w3.org/1999/xlink" style="background: #1C1D1D;">
    <!-- Generator: Sketch 56.2 (81672) - https://sketch.com -->
    <title>logo/16/text/white/go-jek</title>
    <desc>Created with Sketch.</desc>
    <g id="logo/16/text/white/go-jek" stroke="none" stroke-width="1" fill="none" fill-rule="evenodd">
        <rect fill="#1C1D1D" x="0" y="0" width="107" height="16"></rect>
        <path d="M6.33973591,8.24333769 C6.33973591,6.79923512 7.50584875,5.62795307 8.94357807,5.62795307 C10.3813074,5.62795307 11.5474202,6.79923512 11.5474202,8.24333769 C11.5474202,9.68744025 10.3823285,10.8587223 8.94357807,10.8587223 C7.50482764,10.8587223 6.33973591,9.68744025 6.33973591,8.24333769 Z M8.94256104,1.27 C12.7768463,1.26897461 15.8851088,4.39102589 15.8851088,8.24230794 C15.8851088,11.1325644 14.1461609,13.6012823 11.6229868,14.6751285 C11.4636827,14.7407695 11.2931668,14.7756413 11.1205984,14.7766669 C10.5977878,14.7756413 10.1260328,14.4597438 9.92385215,13.9756413 C9.64508787,13.3100003 9.95652781,12.5438464 10.6192312,12.2638464 L10.6192312,12.2628208 C12.1835787,11.6043592 13.2833191,10.0525644 13.2833191,8.24230794 C13.2833191,5.83512846 11.3411592,3.88333359 8.94358216,3.88333359 C6.54600514,3.88333359 4.60384522,5.83512846 4.60384522,8.24230794 C4.60384522,10.0525644 5.70358562,11.6043592 7.26793314,12.2628208 L7.26793314,12.2638464 C7.75092034,12.467949 8.06644474,12.9428208 8.06644474,13.4700003 C8.06644474,14.1920515 7.48338832,14.7776926 6.76452366,14.7776926 C6.5919553,14.7766669 6.42142916,14.7417951 6.26213529,14.6761541 C3.73794007,13.6023079 2.00000306,11.1346156 2.00000306,8.24333359 C2.00000306,4.39205153 5.10827582,1.27 8.94256104,1.27 Z" id="Combined-Shape" fill="#FFFFFF"></path>
        <path d="M28.4654742,7.78254322 C28.4654742,5.62874848 30.1745578,3.96596935 32.5540766,3.96596935 C34.9469849,3.96596935 36.642679,5.62874848 36.642679,7.78254322 C36.642679,9.93633797 34.9469849,11.6000705 32.5540766,11.6000705 C30.1745578,11.6000705 28.4654742,9.93633797 28.4654742,7.78254322 Z M34.6189403,7.78254322 C34.6189403,6.6098263 33.8117402,5.73839274 32.5540766,5.73839274 C31.2964129,5.73839274 30.4892128,6.61077973 30.4892128,7.78254322 C30.4892128,8.95430672 31.2964129,9.82764714 32.5540766,9.82764714 C33.8117402,9.82764714 34.6189403,8.95526015 34.6189403,7.78254322 Z M35.9483377,13.1589298 L37.0424477,13.1589298 C37.6306326,13.1589298 37.8353018,12.9405947 37.8353018,12.422883 L37.8353018,3.96788002 L39.8590404,3.96788002 L39.8590404,12.4505229 C39.8590404,14.2363039 39.1341002,15 37.2060013,15 L35.9483377,15 L35.9483377,13.1589298 Z M25.3036207,3.96310811 L27.2584986,3.96406154 L27.2584986,11.3960359 C27.2584986,13.4535344 25.676616,14.9999952 23.3640547,14.9999952 C21.8433815,14.9999952 20.5120656,14.4689356 19.6293196,13.5345758 L20.9462704,12.2703297 C21.5220221,12.8175976 22.1838497,13.1379496 23.3219636,13.1379496 C24.4505135,13.1379496 25.3036207,12.4104837 25.3036207,11.4227319 L25.3036207,10.6876386 L25.2758851,10.6876386 C24.7661249,11.2501613 23.9264072,11.5657461 22.9221891,11.5657461 C20.6794353,11.5657461 19,9.94682473 19,7.73773114 C19,5.61158581 20.6373538,3.96501497 22.8533284,3.96501497 C23.8852821,3.96501497 24.7527353,4.26629835 25.2758851,4.8154731 L25.3036207,4.8154731 L25.3036207,3.96310811 Z M25.2213704,8.17726163 L25.220414,7.3268035 C25.220414,6.48969337 24.2984461,5.7488795 23.2387569,5.7488795 C21.9045814,5.7488795 21.0371282,6.55929364 21.0371282,7.73868457 C21.0371282,9.01437176 21.8491103,9.78283505 23.1565067,9.78283505 C24.3127921,9.78283505 25.2213704,9.06871718 25.2213704,8.17726163 Z M45.2397464,9.96303587 C46.0517189,9.9639893 46.6054831,9.75042134 47.2147087,9.18217802 L48.5861742,10.1403736 C48.0027713,10.8544819 46.8847513,11.599119 45.3258222,11.599119 C42.781803,11.599119 41.0507222,10.0860186 41.0507222,7.79589313 C41.0507222,5.57345154 42.6919015,3.96501783 44.9891605,3.96501783 C47.423194,3.96501783 48.9276179,5.6830958 48.9276179,7.85022901 L48.9276179,8.42228605 L43.0476721,8.42228605 C43.0735044,9.18122459 44.0260771,9.96303587 45.2397464,9.96303587 Z M45.0302952,5.60110096 C43.937132,5.60110096 43.1844466,6.15981 43.0744608,7.00550099 L46.9583844,7.00550099 C46.8627446,6.15981 46.1100688,5.60110096 45.0302952,5.60110096 Z M50.1202446,2 L52.0732098,2 L52.084677,7.00549908 L52.1114657,7.00549908 L55.3813912,3.94785421 L58,3.94785421 L54.6105343,7.14660648 L57.98662,11.5933965 L55.6482263,11.5933965 L53.329917,8.3793894 L53.3040847,8.3793894 L52.0732098,9.54066519 L52.0732098,11.5991171 L50.1202446,11.5991171 L50.1202446,2 Z" id="Combined-Shape" fill="#FFFFFF"></path>
    </g>
</svg>