<?xml version="1.0" encoding="UTF-8"?>
<svg width="188px" height="44px" viewBox="0 0 188 44" version="1.1" xmlns="http://www.w3.org/2000/svg" xmlns:xlink="http://www.w3.org/1999/xlink">
    <!-- Generator: Sketch 56.3 (81716) - https://sketch.com -->
    <title>gojek-logo</title>
    <desc>Created with Sketch.</desc>
    <g id="Page-1" stroke="none" stroke-width="1" fill="none" fill-rule="evenodd">
        <g id="site" transform="translate(-564.000000, -369.000000)" fill-rule="nonzero">
            <g id="gojek-logo" transform="translate(564.000000, 369.000000)">
                <path d="M13.5088496,21.9680365 C13.5088496,17.6621005 17.1238938,14.1050228 21.5,14.1050228 C25.8761062,14.1050228 29.4911504,17.6621005 29.4911504,21.9680365 C29.4911504,26.2739726 25.8761062,29.8310502 21.5,29.8310502 C16.9336283,30.0182648 13.5088496,26.4611872 13.5088496,21.9680365 Z M21.5,1 C33.2964602,1 43,10.3607306 43,22.1552511 C43,30.9543379 37.6725664,38.4429224 29.8716814,41.6255708 C29.4911504,41.8127854 28.920354,42 28.3495575,42 C26.8274336,42 25.3053097,41.0639269 24.7345133,39.56621 C23.7831858,37.5068493 24.7345133,35.260274 26.8274336,34.3242009 C31.5840708,32.2648402 35.0088496,27.5844749 35.0088496,22.1552511 C35.0088496,14.8538813 28.920354,8.8630137 21.5,8.8630137 C14.079646,8.8630137 7.99115044,14.8538813 7.99115044,22.1552511 C7.99115044,27.5844749 11.4159292,32.2648402 16.1725664,34.3242009 C17.6946903,35.0730594 18.6460177,36.3835616 18.6460177,38.0684932 C18.6460177,40.3150685 16.9336283,42 14.6504425,42 C14.079646,42 13.699115,41.8127854 13.1283186,41.6255708 C5.32743363,38.4429224 0,30.9543379 0,22.1552511 C0,10.5479452 9.70353982,1 21.5,1 Z" id="Shape" fill="#00AA13"></path>
                <path d="M55.3229901,37.7948718 L60.425952,33.6581197 C63.0719323,36.6666667 65.1509168,37.7948718 68.9308886,37.7948718 C72.899859,37.7948718 75.7348378,35.3504274 75.7348378,31.965812 L75.7348378,30.0854701 C74.0338505,31.965812 71.0098731,33.0940171 67.6078984,33.0940171 C59.8589563,33.0940171 54,27.4529915 54,19.9316239 C54,12.5982906 59.6699577,6.95726496 67.2299013,6.95726496 C70.8208745,6.95726496 73.8448519,8.08547009 75.5458392,9.96581197 L75.5458392,7.52136752 L82.3497884,7.52136752 L82.3497884,31.965812 C82.3497884,39.1111111 76.6798307,44 68.74189,44 C62.8829337,43.8119658 58.157969,41.5555556 55.3229901,37.7948718 Z M75.3568406,21.4358974 L75.3568406,18.4273504 C75.3568406,15.6068376 72.1438646,12.974359 68.5528914,12.974359 C64.0169252,12.974359 60.9929478,15.7948718 60.9929478,19.7435897 C60.9929478,24.0683761 63.8279267,26.7008547 68.3638928,26.7008547 C72.1438646,26.8888889 75.3568406,24.4444444 75.3568406,21.4358974 Z M85.9407616,19.9316239 C85.9407616,12.4102564 91.7997179,6.76923077 100.115656,6.76923077 C108.431594,6.76923077 114.29055,12.5982906 114.29055,19.9316239 C114.29055,27.2649573 108.431594,33.0940171 100.115656,33.0940171 C91.7997179,33.0940171 85.9407616,27.2649573 85.9407616,19.9316239 Z M107.297602,19.9316239 C107.297602,15.7948718 104.462623,12.7863248 100.115656,12.7863248 C95.7686883,12.7863248 92.9337094,15.7948718 92.9337094,19.9316239 C92.9337094,24.0683761 95.7686883,27.0769231 100.115656,27.0769231 C104.462623,26.8888889 107.297602,23.8803419 107.297602,19.9316239 Z M111.455571,35.7264957 L115.235543,35.7264957 C117.314528,35.7264957 118.070522,34.974359 118.070522,33.0940171 L118.070522,7.33333333 L125.06347,7.33333333 L125.06347,33.2820513 C125.06347,39.4871795 122.606488,42.1196581 115.802539,42.1196581 L111.455571,42.1196581 L111.455571,35.7264957 Z M128.654443,19.9316239 C128.654443,12.2222222 134.324401,6.58119658 142.262341,6.58119658 C150.767278,6.58119658 155.87024,12.5982906 155.87024,20.1196581 L155.87024,22.1880342 L135.458392,22.1880342 C135.647391,25.3846154 138.293371,27.4529915 142.640339,27.4529915 C145.853315,27.4529915 147.932299,26.1367521 150.389281,23.6923077 L154.736248,28.017094 C151.901269,31.2136752 148.121298,33.0940171 142.640339,33.0940171 C133.946403,33.0940171 128.654443,27.8290598 128.654443,19.9316239 Z M149.066291,17.1111111 C148.688293,14.1025641 146.042313,12.2222222 142.45134,12.2222222 C138.671368,12.2222222 136.025388,14.1025641 135.647391,17.1111111 L149.066291,17.1111111 Z M159.461213,0 L166.454161,0 L166.454161,17.2991453 L177.794076,7.14529915 L187.622003,7.14529915 L175.715092,17.2991453 L188,32.1538462 L179.495063,32.1538462 L171.179126,21.6239316 L166.454161,25.5726496 L166.454161,32.1538462 L159.461213,32.1538462 L159.461213,0 Z" id="Shape" fill="#FFFFFF"></path>
            </g>
        </g>
    </g>
</svg>