<svg xmlns="http://www.w3.org/2000/svg" xmlns:xlink="http://www.w3.org/1999/xlink" viewBox="0 0 622.34 160"><defs><style>.cls-1{fill:none;}.cls-2{clip-path:url(#clip-path);}.cls-3{fill:#4a494a;}.cls-4{fill:#9262a9;}.cls-5{fill:#53c5f2;}.cls-6{fill:#fed917;}.cls-7{fill:#f9a236;}.cls-8{fill:#f05b7e;}.cls-9{fill:#fff;}</style><clipPath id="clip-path"><rect class="cls-1" width="622.34" height="160"/></clipPath></defs><title>English</title><g id="Layer_2" data-name="Layer 2"><g id="Layer_1-2" data-name="Layer 1"><g id="English"><g class="cls-2"><g class="cls-2"><path class="cls-3" d="M160,80c0-22.35-32.31-59.35-59.83-73.88C92.88,2.27,85.93,0,80,0,72.84,0,64.17,3.31,55.22,8.73A140.11,140.11,0,0,0,29.4,29.4,139.68,139.68,0,0,0,8.56,55.51C3.25,64.35,0,72.91,0,80c0,28.29,51.71,80,80,80,7.15,0,15.79-3.31,24.73-8.7a140.67,140.67,0,0,0,25.87-20.7,140.13,140.13,0,0,0,20.8-26C156.73,95.69,160,87.11,160,80"/><path class="cls-4" d="M99,10.34C92.15,6.71,85.59,4.57,80,4.57c-6.75,0-14.93,3.12-23.36,8.24A166.79,166.79,0,0,1,80.12,29.25Z"/><path class="cls-5" d="M106.26,53.74a306.71,306.71,0,0,0-26.14-24.5A168.21,168.21,0,0,0,56.64,12.8,133,133,0,0,0,32.29,32.28L80,80Z"/><path class="cls-6" d="M155.43,80C155.43,58.92,125,24,99,10.34l-18.9,18.9a306.71,306.71,0,0,1,26.14,24.5L80,80l24.86,24.86L80.22,129.5c12,9.83,21.17,16.36,23.1,17.73a132.76,132.76,0,0,0,24.4-19.51,132.75,132.75,0,0,0,19.6-24.55c5-8.37,8.11-16.47,8.11-23.17"/><path class="cls-7" d="M104.86,104.86,80,80,32.28,32.29A131.54,131.54,0,0,0,12.64,56.9c16,27.63,46.32,55.25,67.58,72.61Z"/><path class="cls-8" d="M103.31,147.23c-1.92-1.37-11-7.9-23.1-17.73C59,112.15,28.59,84.52,12.64,56.9c-5,8.34-8.07,16.42-8.07,23.1,0,26.67,48.76,75.43,75.43,75.43,6.74,0,14.9-3.11,23.31-8.2"/><path class="cls-9" d="M183,106.41a4.15,4.15,0,0,1-1.84-1.5,3.84,3.84,0,0,1,.32-4.89,3.44,3.44,0,0,1,2.67-1.14,4.21,4.21,0,0,1,1.72.36A43.31,43.31,0,0,0,203.72,103q15.87,0,15.87-10.42a5.75,5.75,0,0,0-2-4.53,14.68,14.68,0,0,0-5-2.86c-2-.7-4.85-1.53-8.53-2.5A107.27,107.27,0,0,1,192.12,79a20.75,20.75,0,0,1-7.8-5.3,13.6,13.6,0,0,1-3.22-9.44,17,17,0,0,1,2.7-9.39,18.74,18.74,0,0,1,8-6.71,29.82,29.82,0,0,1,12.74-2.49,51.61,51.61,0,0,1,18.09,3,3.56,3.56,0,0,1,2.54,3.63,4,4,0,0,1-1,2.63,3.29,3.29,0,0,1-2.63,1.18,4.54,4.54,0,0,1-1.46-.36,44.22,44.22,0,0,0-14.6-2.45q-7.15,0-11.65,2.72a8.46,8.46,0,0,0-4.49,7.6,7,7,0,0,0,2.11,5.29,14.5,14.5,0,0,0,5.34,3.17,85.31,85.31,0,0,0,8.76,2.41,91.36,91.36,0,0,1,11.56,3.45,19.09,19.09,0,0,1,7.53,5.35q3.12,3.63,3.13,9.8a15.27,15.27,0,0,1-2.94,9.14,19,19,0,0,1-8.16,6.3,30.55,30.55,0,0,1-12.16,2.27A53.88,53.88,0,0,1,183,106.41Z"/><path class="cls-9" d="M239.31,109.14a4,4,0,0,1-1.18-2.91V47.36a4.12,4.12,0,0,1,1.18-3,3.87,3.87,0,0,1,2.9-1.22,4.15,4.15,0,0,1,4.15,4.15V71A30.24,30.24,0,0,1,253.78,65a18.85,18.85,0,0,1,9.44-2.27,15.74,15.74,0,0,1,8.66,2.36,15.24,15.24,0,0,1,5.62,6.44,20.52,20.52,0,0,1,2,9v25.74a3.88,3.88,0,0,1-1.23,2.9,4.1,4.1,0,0,1-2.94,1.18,4.06,4.06,0,0,1-2.91-1.18,4,4,0,0,1-1.17-2.91V81.38q0-11.07-10-11.07a14.35,14.35,0,0,0-8.12,2.37A29.14,29.14,0,0,0,246.35,79v27.2a3.84,3.84,0,0,1-1.2,2.91,4.08,4.08,0,0,1-2.94,1.18,4,4,0,0,1-2.9-1.18"/><path class="cls-9" d="M297.77,109.16a12.82,12.82,0,0,1-5.4-4.76,13.2,13.2,0,0,1-2-7.23,12.73,12.73,0,0,1,5.31-10.71q5.31-4,15.55-4h11v-.69q0-6-2.95-8.61t-9.2-2.63a31.31,31.31,0,0,0-6.12.54A52.88,52.88,0,0,0,298,72.71a4.75,4.75,0,0,1-1.18.18,3.2,3.2,0,0,1-2.36-1,3.34,3.34,0,0,1-1-2.45A3.49,3.49,0,0,1,295.82,66a40.08,40.08,0,0,1,15.69-3.26,20.65,20.65,0,0,1,10.57,2.54,16,16,0,0,1,6.35,6.57,19.24,19.24,0,0,1,2.05,8.75v25.67a3.87,3.87,0,0,1-1.26,2.89,4.12,4.12,0,0,1-3,1.17,4,4,0,0,1-4.08-4.08v-2.36a22.75,22.75,0,0,1-17.05,6.91,16.77,16.77,0,0,1-7.37-1.64Zm18.19-7.6a21.7,21.7,0,0,0,6.22-4.84V89.07h-9.86q-13.68,0-13.69,7.17a6.71,6.71,0,0,0,2.22,5.28c1.47,1.34,3.94,2,7.39,2a16.41,16.41,0,0,0,7.72-2"/><path class="cls-9" d="M345.53,109.14a3.94,3.94,0,0,1-1.18-2.91V67.33a4,4,0,0,1,1.18-2.94,3.85,3.85,0,0,1,2.93-1.21,4.15,4.15,0,0,1,4.15,4.15v3.9q6.33-8.52,14.24-8.52h.45a3.8,3.8,0,0,1,2.86,1.18,4,4,0,0,1,1.13,2.9,3.62,3.62,0,0,1-1.17,2.8,4.25,4.25,0,0,1-3,1.09h-.45a15.51,15.51,0,0,0-8,2.14,18.38,18.38,0,0,0-6.08,5.85v27.59a3.89,3.89,0,0,1-1.22,2.91,4.17,4.17,0,0,1-2.95,1.18,4,4,0,0,1-2.91-1.21"/><path class="cls-9" d="M381.11,104.46q-6.23-6.3-6.22-17.73a29.38,29.38,0,0,1,2.36-11.88,20.16,20.16,0,0,1,7.25-8.8,23.21,23.21,0,0,1,23.67-.23,20.18,20.18,0,0,1,7.44,8.34,25.65,25.65,0,0,1,2.54,11.39A4,4,0,0,1,414,89.63H383.25A14.7,14.7,0,0,0,388,99.52q4,3.54,11.14,3.53a26.64,26.64,0,0,0,6.66-.69,27.75,27.75,0,0,0,5.58-2.08,3.56,3.56,0,0,1,1.63-.36,3.66,3.66,0,0,1,2.54,1,3.28,3.28,0,0,1,1.09,2.54c0,1.33-.79,2.44-2.36,3.35a28.3,28.3,0,0,1-15.84,4q-11.07,0-17.3-6.31M410,82.92a14.54,14.54,0,0,0-2.31-7.43,12.49,12.49,0,0,0-5-4.41,13.86,13.86,0,0,0-12.15,0,12.13,12.13,0,0,0-5,4.41,14.73,14.73,0,0,0-2.28,7.43Z"/><path class="cls-9" d="M441.89,106.81a28.34,28.34,0,0,1-11.33-11.33,34.7,34.7,0,0,1-4.15-17.29,34.7,34.7,0,0,1,4.15-17.29,28.36,28.36,0,0,1,11.33-11.34,33.4,33.4,0,0,1,16.29-4,38.72,38.72,0,0,1,11,1.45,47.31,47.31,0,0,1,9.68,4.15,3.66,3.66,0,0,1,2,3.46,3.38,3.38,0,0,1-1,2.4,3.87,3.87,0,0,1-4.27.68,41.87,41.87,0,0,0-7.79-3.17A32.26,32.26,0,0,0,459,53.5a25.74,25.74,0,0,0-13.28,3.22,20.65,20.65,0,0,0-8.3,8.84,30.32,30.32,0,0,0,0,25.31,20.64,20.64,0,0,0,8.26,8.8A25.89,25.89,0,0,0,459,102.88a31.87,31.87,0,0,0,8.8-1.08,41.56,41.56,0,0,0,7.8-3.17,3.38,3.38,0,0,1,1.63-.36,3.51,3.51,0,0,1,2.63,1,3.33,3.33,0,0,1,1,2.45,3.66,3.66,0,0,1-2,3.46,47.31,47.31,0,0,1-9.68,4.15,38.78,38.78,0,0,1-11,1.45,33.36,33.36,0,0,1-16.25-4"/><path class="cls-9" d="M492.82,109.14a4,4,0,0,1-1.17-2.91V47.36a4.12,4.12,0,0,1,1.17-3,3.88,3.88,0,0,1,2.9-1.22,4.15,4.15,0,0,1,4.15,4.15V71a30,30,0,0,1,7.44-6.07,18.77,18.77,0,0,1,9.43-2.25,15.74,15.74,0,0,1,8.66,2.36A15.37,15.37,0,0,1,531,71.48a20.69,20.69,0,0,1,2,9v25.74a3.91,3.91,0,0,1-1.23,2.91,4.23,4.23,0,0,1-5.85,0,4,4,0,0,1-1.17-2.91V81.38q0-11.07-10-11.07a14.35,14.35,0,0,0-8.12,2.37A29.38,29.38,0,0,0,499.86,79v27.2a3.85,3.85,0,0,1-1.22,2.91,4.1,4.1,0,0,1-2.95,1.17,4,4,0,0,1-2.87-1.17"/><path class="cls-9" d="M551.28,109.16a12.82,12.82,0,0,1-5.4-4.76,13.1,13.1,0,0,1-2-7.21,12.66,12.66,0,0,1,5.31-10.7q5.29-4,15.55-4h11V81.8c0-4-1-6.86-3-8.61s-5-2.63-9.2-2.64a32.28,32.28,0,0,0-6.13.55,52.71,52.71,0,0,0-5.94,1.64,5.27,5.27,0,0,1-1.18.18,3.2,3.2,0,0,1-2.36-1,3.35,3.35,0,0,1-1-2.45A3.51,3.51,0,0,1,549.34,66,39.73,39.73,0,0,1,565,62.75a20.56,20.56,0,0,1,10.57,2.54,15.93,15.93,0,0,1,6.34,6.57A19.14,19.14,0,0,1,584,80.61v25.67a3.89,3.89,0,0,1-1.25,2.88,4.1,4.1,0,0,1-7-2.91v-2.36a22.77,22.77,0,0,1-17.06,6.92,17,17,0,0,1-7.41-1.67Zm18.18-7.6a21.61,21.61,0,0,0,6.23-4.84V89.07h-9.83q-13.7,0-13.69,7.17a6.71,6.71,0,0,0,2.22,5.25c1.48,1.34,4,2,7.39,2a16.44,16.44,0,0,0,7.68-1.93"/><path class="cls-9" d="M622.34,106a3.44,3.44,0,0,1-2.07,3.17,17.79,17.79,0,0,1-7.53,1.64q-13.25,0-13.25-12V70.67h-5.26a3.37,3.37,0,0,1-2.54-1,3.54,3.54,0,0,1-1-2.5,3.44,3.44,0,0,1,1-2.54,3.4,3.4,0,0,1,2.54-1h5.26V47.28a4.14,4.14,0,0,1,7-2.86,3.87,3.87,0,0,1,1.22,2.86V63.66H618a3.56,3.56,0,0,1,2.54,6,3.37,3.37,0,0,1-2.54,1H607.74V98.09c0,2.35.57,3.85,1.68,4.48a8.46,8.46,0,0,0,4.21,1,12.78,12.78,0,0,0,3.63-.55l.77-.18a5.32,5.32,0,0,1,1.05-.09,3.16,3.16,0,0,1,2.26,1,3.07,3.07,0,0,1,1,2.29"/></g></g></g></g></g></svg>